<?xml version="1.0" encoding="UTF-8"?>
<!DOCTYPE svg PUBLIC "-//W3C//DTD SVG 1.1//EN" "http://www.w3.org/Graphics/SVG/1.1/DTD/svg11.dtd">
<!-- Creator: CorelDRAW X8 -->
<svg xmlns="http://www.w3.org/2000/svg" xml:space="preserve" width="10.6667in" height="8in" version="1.1" style="shape-rendering:geometricPrecision; text-rendering:geometricPrecision; image-rendering:optimizeQuality; fill-rule:evenodd; clip-rule:evenodd"
viewBox="0 0 10667 8000"
 xmlns:xlink="http://www.w3.org/1999/xlink">
 <defs>
  <style type="text/css">
   <![CDATA[
    .str1 {stroke:#217947;stroke-width:111.11}
    .str0 {stroke:#0A8B4E;stroke-width:3}
    .fil1 {fill:none}
    .fil0 {fill:#E4EBA5}
    .fil3 {fill:#217947}
    .fil2 {fill:#217947;fill-rule:nonzero}
   ]]>
  </style>
 </defs>
 <g id="Layer_x0020_1">
  <metadata id="CorelCorpID_0Corel-Layer"/>
  <g id="_180374026688">
   <path class="fil0" d="M2665 3481c137,640 547,765 1068,756 111,-2 162,-6 273,5 704,70 1569,-28 2305,-68 205,-11 834,-55 991,-8 574,175 1092,787 509,1583l-64 84c36,-81 50,-109 79,-192 233,-659 -174,-877 -619,-852 -171,10 -342,7 -514,13 -841,28 -1756,142 -2577,104 -215,-10 -333,-13 -532,-92 -525,-209 -959,-550 -919,-1333z"/>
  </g>
  <path class="fil1" d="M2665 3481c86,1587 2246,1007 4423,989 489,-4 1282,373 659,1363"/>
  <path class="fil2" d="M7774 3126l-391 0 0 954 376 19c143,307 54,362 255,549l-14 -805 -15 14 -217 -27 6 -704z"/>
  <ellipse class="fil3" cx="7587" cy="2777" rx="133" ry="194"/>
  <rect class="fil3 str0" x="7579" y="2971" width="0.0433984" height="155.196"/>
  <rect class="fil3 str0" transform="matrix(0.0015341 0.0292982 -5.27799 0.340632 7460.21 2782.63)" width="1.64173" height="26.4409"/>
  <path class="fil2 str1" d="M3730 3066l-257 62c-8,-70 -28,-122 -59,-158 -30,-35 -70,-53 -119,-53 -65,0 -117,31 -155,92 -39,62 -58,165 -58,310 0,161 19,275 59,342 39,66 91,99 157,99 50,0 90,-19 122,-58 32,-39 54,-105 67,-200l257 60c-27,162 -78,284 -154,367 -75,82 -176,124 -303,124 -144,0 -259,-63 -345,-188 -86,-125 -129,-298 -129,-520 0,-224 43,-398 129,-523 86,-125 203,-187 349,-187 120,0 216,35 287,106 70,71 121,179 152,325zm137 259c0,-120 22,-235 65,-346 42,-112 103,-197 181,-256 79,-59 166,-88 262,-88 150,0 272,66 367,200 96,133 143,301 143,505 0,205 -48,376 -144,510 -96,135 -218,203 -364,203 -90,0 -176,-28 -258,-85 -82,-56 -145,-138 -187,-247 -43,-108 -65,-241 -65,-396zm269 19c0,134 23,237 69,309 47,72 104,107 172,107 68,0 125,-35 171,-107 46,-72 69,-176 69,-312 0,-133 -23,-235 -69,-306 -46,-72 -103,-108 -171,-108 -68,0 -125,36 -172,108 -46,71 -69,174 -69,309zm935 -681l240 0 0 185c86,-142 188,-213 307,-213 63,0 118,18 164,53 47,36 85,90 115,162 43,-72 90,-126 140,-162 50,-35 104,-53 161,-53 72,0 133,20 184,60 50,41 87,100 112,178 18,58 27,151 27,281l0 517 0 348c-333,29 -199,-220 -261,-774 -15,-133 -9,-221 -27,-259 -24,-51 -61,-77 -111,-77 -37,0 -71,15 -104,46 -32,31 -55,75 -69,134 -15,59 -22,152 -22,280l0 650 -260 0 0 -742c0,-131 -5,-217 -14,-254 -9,-39 -24,-67 -43,-86 -20,-19 -46,-28 -80,-28 -40,0 -76,15 -108,44 -32,30 -55,73 -69,129 -14,56 -21,149 -21,279l0 658 -261 0 0 -1356zm1597 0l144 0 0 -102c0,-114 9,-199 27,-255 18,-57 50,-103 98,-138 48,-35 108,-53 181,-53 74,0 148,15 219,46l-33 249c-43,-14 -83,-21 -123,-21 -38,0 -66,12 -83,37 -17,24 -25,71 -25,141l0 96 196 0 0 283 -196 0 0 1073 -261 0 -291 0 -224 -181 514 4 1 -896 -144 0 0 -283z"/>
 </g>
</svg>
