<?xml version="1.0" encoding="UTF-8"?>
<!DOCTYPE svg PUBLIC "-//W3C//DTD SVG 1.1//EN" "http://www.w3.org/Graphics/SVG/1.1/DTD/svg11.dtd">
<!-- Creator: CorelDRAW X8 -->
<svg xmlns="http://www.w3.org/2000/svg" xml:space="preserve" width="10.6667in" height="8in" version="1.1" style="shape-rendering:geometricPrecision; text-rendering:geometricPrecision; image-rendering:optimizeQuality; fill-rule:evenodd; clip-rule:evenodd"
viewBox="0 0 10667 8000"
 xmlns:xlink="http://www.w3.org/1999/xlink">
 <defs>
  <style type="text/css">
   <![CDATA[
    .str1 {stroke:#217947;stroke-width:27.7756}
    .str0 {stroke:#0A8B4E;stroke-width:3}
    .fil1 {fill:none}
    .fil0 {fill:#E4EBA5}
    .fil3 {fill:#217947}
    .fil2 {fill:#217947;fill-rule:nonzero}
   ]]>
  </style>
 </defs>
 <g id="Layer_x0020_1">
  <metadata id="CorelCorpID_0Corel-Layer"/>
  <g id="_180374029024">
   <path class="fil0" d="M3863 3417c40,188 160,225 314,222 32,0 47,-1 80,2 206,20 460,-8 676,-20 61,-3 245,-16 291,-2 169,51 321,230 150,464l-19 25c11,-24 15,-32 23,-56 69,-194 -51,-258 -181,-251 -51,3 -101,3 -151,4 -247,8 -516,42 -757,31 -63,-3 -98,-4 -156,-27 -154,-62 -282,-162 -270,-392z"/>
  </g>
  <path class="fil1" d="M3863 3417c25,466 659,296 1299,291 143,-1 376,109 193,400"/>
  <path class="fil2" d="M5363 3313l-115 0 0 280 110 6c42,90 16,106 75,161l-4 -236 -4 4 -64 -8 2 -207z"/>
  <ellipse class="fil3" cx="5308" cy="3211" rx="39" ry="57"/>
  <rect class="fil3 str0" x="5306" y="3268" width="0.0127418" height="45.5657"/>
  <rect class="fil3 str0" transform="matrix(0.000450411 0.00860197 -1.54962 0.10001 5270.79 3212.28)" width="1.64173" height="26.4409"/>
  <path class="fil2 str1" d="M4176 3295l-76 19c-2,-21 -8,-36 -17,-47 -9,-10 -21,-15 -35,-15 -19,0 -34,9 -46,27 -11,18 -17,48 -17,91 0,47 6,81 18,100 11,20 27,29 46,29 14,0 26,-5 36,-17 9,-11 15,-31 19,-59l76 18c-8,48 -23,84 -45,108 -23,24 -52,36 -90,36 -42,0 -76,-18 -101,-55 -25,-37 -38,-88 -38,-153 0,-65 13,-117 38,-153 26,-37 60,-55 103,-55 35,0 63,10 84,31 21,21 36,53 45,95zm40 76c0,-35 6,-68 19,-101 12,-33 30,-58 53,-75 23,-17 49,-26 77,-26 44,0 80,19 108,59 28,39 42,88 42,148 0,60 -14,110 -43,150 -28,39 -63,59 -106,59 -27,0 -52,-8 -76,-25 -24,-16 -43,-40 -55,-72 -13,-32 -19,-71 -19,-117zm79 6c0,40 7,70 20,91 14,21 31,31 51,31 19,0 36,-10 50,-31 13,-21 20,-52 20,-92 0,-39 -7,-69 -20,-90 -14,-21 -31,-31 -50,-31 -20,0 -37,10 -51,31 -13,21 -20,52 -20,91zm274 -200l71 0 0 55c25,-42 55,-63 90,-63 19,0 35,5 48,16 14,10 25,26 34,47 12,-21 26,-37 41,-47 15,-11 30,-16 47,-16 21,0 39,6 54,18 15,12 26,29 33,52 5,17 8,44 8,82l0 152 0 102c-98,9 -58,-64 -77,-227 -4,-39 -2,-65 -7,-76 -8,-15 -18,-23 -33,-23 -11,0 -21,5 -31,14 -9,9 -16,22 -20,39 -4,18 -6,45 -6,82l0 191 -77 0 0 -218c0,-38 -1,-63 -4,-74 -3,-12 -7,-20 -13,-25 -5,-6 -13,-9 -23,-9 -12,0 -22,5 -32,13 -9,9 -16,22 -20,38 -4,17 -6,44 -6,82l0 193 -77 0 0 -398zm469 0l43 0 0 -30c0,-33 2,-58 7,-75 6,-16 15,-30 29,-40 14,-10 32,-16 53,-16 22,0 44,5 65,14l-10 73c-13,-4 -25,-6 -36,-6 -11,0 -20,3 -25,11 -4,7 -7,20 -7,41l0 28 58 0 0 83 -58 0 0 315 -76 0 -86 0 -66 -53 151 1 1 -263 -43 0 0 -83z"/>
 </g>
</svg>
