<?xml version="1.0" encoding="UTF-8"?>
<!DOCTYPE svg PUBLIC "-//W3C//DTD SVG 1.1//EN" "http://www.w3.org/Graphics/SVG/1.1/DTD/svg11.dtd">
<!-- Creator: CorelDRAW X8 -->
<svg xmlns="http://www.w3.org/2000/svg" xml:space="preserve" width="10.6667in" height="8in" version="1.1" style="shape-rendering:geometricPrecision; text-rendering:geometricPrecision; image-rendering:optimizeQuality; fill-rule:evenodd; clip-rule:evenodd"
viewBox="0 0 10667 8000"
 xmlns:xlink="http://www.w3.org/1999/xlink">
 <defs>
  <style type="text/css">
   <![CDATA[
    .str1 {stroke:#217947;stroke-width:41.6654}
    .str0 {stroke:#0A8B4E;stroke-width:3}
    .fil1 {fill:none}
    .fil0 {fill:#E4EBA5}
    .fil3 {fill:#217947}
    .fil2 {fill:#217947;fill-rule:nonzero}
   ]]>
  </style>
 </defs>
 <g id="Layer_x0020_1">
  <metadata id="CorelCorpID_0Corel-Layer"/>
  <g id="_180374026880">
   <path class="fil0" d="M3863 3695c69,318 272,380 531,376 55,-1 81,-3 136,2 349,35 779,-14 1145,-33 102,-6 415,-28 492,-4 286,87 543,390 254,786l-32 42c18,-41 25,-55 39,-95 116,-328 -86,-436 -307,-424 -86,5 -171,4 -256,6 -418,14 -873,71 -1281,52 -106,-5 -165,-6 -264,-46 -261,-104 -476,-273 -457,-662z"/>
  </g>
  <path class="fil1" d="M3863 3695c43,788 1117,501 2198,492 243,-2 637,185 328,677"/>
  <path class="fil2" d="M6402 3519l-194 0 0 474 187 9c71,153 27,180 126,273l-7 -400 -7 7 -108 -13 3 -350z"/>
  <ellipse class="fil3" cx="6309" cy="3345" rx="66" ry="96"/>
  <rect class="fil3 str0" x="6305" y="3442" width="0.0215647" height="77.117"/>
  <rect class="fil3 str0" transform="matrix(0.000762293 0.0145583 -2.62264 0.16926 6246.25 3348.01)" width="1.64173" height="26.4409"/>
  <path class="fil2 str1" d="M4393 3489l-128 31c-4,-35 -14,-61 -29,-79 -15,-17 -35,-26 -59,-26 -33,0 -58,15 -78,46 -19,30 -29,82 -29,154 0,80 10,136 30,169 19,33 45,50 78,50 25,0 45,-10 61,-29 15,-19 26,-52 33,-100l127 30c-13,81 -38,141 -76,183 -37,41 -87,61 -151,61 -71,0 -128,-31 -171,-93 -43,-62 -64,-148 -64,-259 0,-111 22,-197 64,-259 43,-63 101,-93 174,-93 59,0 107,17 142,53 35,35 60,88 76,161zm68 128c0,-59 11,-116 32,-172 21,-55 51,-97 90,-127 39,-29 82,-43 130,-43 75,0 135,33 183,99 47,66 71,150 71,251 0,102 -24,187 -72,254 -48,67 -108,100 -181,100 -45,0 -87,-14 -128,-42 -41,-28 -72,-69 -93,-123 -21,-53 -32,-119 -32,-197zm133 10c0,67 12,118 35,153 23,36 51,54 85,54 34,0 62,-18 85,-54 23,-35 34,-87 34,-154 0,-66 -11,-117 -34,-153 -23,-35 -51,-53 -85,-53 -34,0 -62,18 -85,53 -23,36 -35,87 -35,154zm465 -338l119 0 0 92c43,-71 94,-106 153,-106 31,0 59,8 82,26 23,18 42,45 56,81 22,-36 45,-63 70,-81 25,-18 52,-26 80,-26 36,0 66,9 91,30 25,20 44,49 56,88 9,29 13,75 13,139l0 257 0 173c-165,15 -98,-109 -129,-384 -7,-66 -4,-110 -13,-129 -12,-25 -31,-38 -56,-38 -18,0 -35,7 -51,22 -16,16 -28,38 -35,67 -7,30 -10,76 -10,139l0 323 -130 0 0 -368c0,-66 -2,-108 -7,-127 -4,-19 -12,-33 -21,-42 -10,-10 -23,-14 -40,-14 -20,0 -38,7 -54,22 -16,15 -27,36 -34,64 -7,28 -10,74 -10,139l0 326 -130 0 0 -673zm793 0l72 0 0 -51c0,-57 5,-99 13,-127 9,-28 26,-51 49,-68 24,-18 54,-27 90,-27 37,0 74,8 109,23l-16 124c-22,-7 -42,-10 -61,-10 -20,0 -33,6 -42,18 -8,12 -12,35 -12,70l0 48 97 0 0 140 -97 0 0 533 -130 0 -145 0 -111 -90 256 2 0 -445 -72 0 0 -140z"/>
 </g>
</svg>
