<?xml version="1.0" encoding="UTF-8"?>
<!DOCTYPE svg PUBLIC "-//W3C//DTD SVG 1.1//EN" "http://www.w3.org/Graphics/SVG/1.1/DTD/svg11.dtd">
<!-- Creator: CorelDRAW X8 -->
<svg xmlns="http://www.w3.org/2000/svg" xml:space="preserve" width="10.6667in" height="8in" version="1.1" style="shape-rendering:geometricPrecision; text-rendering:geometricPrecision; image-rendering:optimizeQuality; fill-rule:evenodd; clip-rule:evenodd"
viewBox="0 0 10667 8000"
 xmlns:xlink="http://www.w3.org/1999/xlink">
 <defs>
  <style type="text/css">
   <![CDATA[
    .str1 {stroke:#217947;stroke-width:13.8858}
    .str0 {stroke:#0A8B4E;stroke-width:3}
    .fil1 {fill:none}
    .fil0 {fill:#E4EBA5}
    .fil3 {fill:#217947}
    .fil2 {fill:#217947;fill-rule:nonzero}
   ]]>
  </style>
 </defs>
 <g id="Layer_x0020_1">
  <metadata id="CorelCorpID_0Corel-Layer"/>
  <g id="_180374031936">
   <path class="fil0" d="M8912 1597c26,123 104,146 204,145 21,-1 31,-1 52,1 135,13 301,-6 442,-13 39,-2 159,-11 189,-2 110,34 209,151 98,303l-13 16c7,-15 10,-21 16,-37 44,-126 -34,-167 -119,-163 -33,2 -65,2 -98,3 -161,5 -336,27 -494,20 -41,-2 -63,-3 -101,-18 -101,-40 -184,-105 -176,-255z"/>
  </g>
  <path class="fil1" d="M8912 1597c16,304 430,193 846,189 94,0 246,72 126,261"/>
  <path class="fil2" d="M9890 1529l-75 0 0 183 72 3c27,59 10,69 49,105l-3 -154 -3 3 -42 -5 2 -135z"/>
  <ellipse class="fil3" cx="9854" cy="1462" rx="26" ry="37"/>
  <rect class="fil3 str0" x="9852" y="1499" width="0.00830722" height="29.7073"/>
  <rect class="fil3 str0" transform="matrix(0.000293653 0.0056082 -1.0103 0.065203 9829.61 1463.25)" width="1.64173" height="26.4409"/>
  <path class="fil2 str1" d="M9116 1517l-50 12c-1,-13 -5,-23 -11,-30 -6,-7 -13,-10 -23,-10 -12,0 -22,6 -29,18 -8,12 -12,31 -12,59 0,31 4,53 12,65 7,13 17,19 30,19 9,0 17,-3 23,-11 6,-7 11,-20 13,-38l49 11c-5,31 -15,55 -29,71 -15,15 -34,23 -58,23 -28,0 -50,-12 -66,-36 -17,-24 -25,-57 -25,-99 0,-43 8,-76 25,-100 16,-24 39,-36 67,-36 23,0 41,7 54,20 14,14 24,35 30,62zm26 50c0,-23 4,-45 12,-66 8,-22 20,-38 35,-49 15,-11 32,-17 50,-17 29,0 52,13 70,38 19,26 28,58 28,97 0,39 -10,72 -28,98 -18,25 -42,38 -70,38 -17,0 -33,-5 -49,-16 -16,-11 -28,-26 -36,-47 -8,-21 -12,-46 -12,-76zm51 4c0,25 5,45 14,59 8,14 19,20 32,20 13,0 24,-6 33,-20 9,-14 13,-34 13,-60 0,-25 -4,-45 -13,-58 -9,-14 -20,-21 -33,-21 -13,0 -24,7 -32,21 -9,13 -14,33 -14,59zm179 -131l46 0 0 36c17,-27 36,-41 59,-41 12,0 23,3 31,10 9,7 17,17 22,31 9,-14 18,-24 27,-31 10,-7 20,-10 31,-10 14,0 26,4 35,12 10,7 17,19 22,34 3,11 5,29 5,53l0 99 0 67c-64,5 -38,-42 -50,-148 -3,-26 -2,-42 -5,-50 -5,-10 -12,-15 -22,-15 -7,0 -13,3 -19,9 -7,6 -11,15 -14,26 -2,11 -4,29 -4,53l0 125 -50 0 0 -142c0,-25 -1,-42 -2,-49 -2,-7 -5,-13 -9,-16 -3,-4 -8,-6 -15,-6 -7,0 -14,3 -21,9 -6,6 -10,14 -13,25 -2,10 -4,28 -4,53l0 126 -50 0 0 -260zm306 0l28 0 0 -19c0,-22 1,-38 5,-49 3,-11 9,-20 18,-26 10,-7 21,-11 35,-11 14,0 28,3 42,9l-6 48c-8,-3 -16,-4 -24,-4 -7,0 -12,2 -16,7 -3,5 -5,14 -5,27l0 18 38 0 0 54 -38 0 0 206 -49 0 -56 0 -43 -35 98 1 1 -172 -28 0 0 -54z"/>
 </g>
</svg>
